<?xml version="1.0" standalone="no"?><!DOCTYPE svg PUBLIC "-//W3C//DTD SVG 1.1//EN" "http://www.w3.org/Graphics/SVG/1.1/DTD/svg11.dtd"><svg t="1656469438934" class="icon" viewBox="0 0 1106 1024" version="1.1" xmlns="http://www.w3.org/2000/svg" p-id="1170" xmlns:xlink="http://www.w3.org/1999/xlink" width="216.015625" height="200"><defs><style type="text/css">@font-face { font-family: feedback-iconfont; src: url("//at.alicdn.com/t/font_1031158_u69w8yhxdu.woff2?t=1630033759944") format("woff2"), url("//at.alicdn.com/t/font_1031158_u69w8yhxdu.woff?t=1630033759944") format("woff"), url("//at.alicdn.com/t/font_1031158_u69w8yhxdu.ttf?t=1630033759944") format("truetype"); }
</style></defs><path d="M666.89347 91.375759a83.285197 83.285197 0 0 0-86.242672-3.569365c-124.96179 68.667795-472.210072 262.569332-472.210072 296.427314l11.727916 510.793215a74.786708 74.786708 0 0 0 74.140823 74.990672h242.036981c16.996979 0 9.348338-14.923348 9.348339-32.090297l1.427746-64.58852c0-58.367626 67.172061-104.429439 124.825814-104.42944h77.268267a105.789198 105.789198 0 0 1 104.871361 106.095144v63.840653a30.934502 30.934502 0 0 0 30.764532 31.104472h207.363144a74.786708 74.786708 0 0 0 74.140823-74.990672l-11.795904-510.725227c0-33.280085-279.46433-221.300667-387.667098-292.857949z" fill="#56E5BE" p-id="1171"></path><path d="M692.728878 103.103675a78.186104 78.186104 0 0 0-83.285197-3.569366c-120.746539 68.701789-456.266906 262.603326-456.266906 296.427315l11.353982 510.793214c0 41.268665 32.226272 74.990672 71.591276 74.990672l188.870431-2.787504c16.419082 0-10.198187-13.903529-10.198187-31.104472v-63.80666c0-58.367626 130.366829-103.341633 186.11692-103.341632h74.786708c55.716097 0 101.301995 47.761511 101.301995 106.129137v63.738671a30.594562 30.594562 0 0 0 29.71072 31.104472h200.462371c39.398997 0 71.62527-33.722006 71.625269-74.990671l-11.353982-510.793215c-0.135976-33.212097-270.149985-221.232679-374.7154-292.789961z" fill="#50DDB8" p-id="1172"></path><path d="M713.261229 103.103675a70.775421 70.775421 0 0 0-78.899977-3.569366c-114.321681 68.701789-431.99522 262.603326-431.995219 296.427315l10.74209 510.793214c0 41.268665 30.594562 74.990672 67.783953 74.990672h132.576436c15.535239 0 32.090296-16.691033 32.090297-33.993958v-63.704678c-18.934635-83.863095 115.919397-119.522757 180.711881-103.341632h70.673439c52.894599-0.101982 96.066926 47.761511 96.066926 106.129137v63.738671c0 17.200943 12.611758 31.104472 28.146997 31.104472h189.686286c37.393354 0 67.817946-33.722006 67.817947-74.990671l-10.776085-510.793215c0-33.212097-255.634565-221.232679-354.624971-292.789961z" fill="#42D3AD" p-id="1173"></path><path d="M994.79919 1023.966006h-226.127809a64.58852 64.58852 0 0 1-64.588521-64.58852v-68.769778a83.421173 83.421173 0 0 0-83.319191-83.285197h-84.237028a83.421173 83.421173 0 0 0-83.455167 83.285197v68.803772a64.58852 64.58852 0 0 1-64.588521 64.58852h-263.793115a111.976098 111.976098 0 0 1-111.874116-111.466189L0 361.83169c0-22.300037 17.472894-41.064701 74.786708-80.463699 34.809813-23.795771 84.237028-54.866248 146.887893-91.783687 112.452013-66.492182 242.206951-137.777512 309.548982-174.389005a122.718189 122.718189 0 0 1 125.777645 5.133088c434.408791 283.917538 436.788368 318.863327 436.822362 341.231351l12.815722 550.872091a111.976098 111.976098 0 0 1-111.840122 111.534177z m-458.272549-278.750456h84.271022a145.562129 145.562129 0 0 1 145.392159 145.392158v68.803772a2.481559 2.481559 0 0 0 2.481559 2.481559h226.127809a49.90313 49.90313 0 0 0 49.767155-49.46121l-12.679747-544.651196c-20.396375-27.705076-152.258938-128.089234-408.845334-295.747436a60.713209 60.713209 0 0 0-62.242937-2.549547c-309.718952 168.236099-470.918302 269.912027-498.657372 299.486771l12.611759 543.155463a49.835143 49.835143 0 0 0 49.801148 49.767155h263.963085a2.481559 2.481559 0 0 0 2.481559-2.481559v-68.803772a145.562129 145.562129 0 0 1 145.528135-145.392158z m497.025661-374.919364z" fill="#2E3138" p-id="1174"></path><path d="M291.090263 729.612323a31.070478 31.070478 0 0 1-31.036483-30.322611L254.716728 469.116622c0-20.396375 12.815722-38.923082 85.562793-87.7724 39.874913-26.787239 95.998938-61.189125 166.842346-102.627759a31.036484 31.036484 0 1 1 31.274441 53.608471c-169.051954 98.582479-211.10248 133.630249-221.402649 144.304353l5.133088 221.198685a31.00249 31.00249 0 0 1-30.322611 31.750357z m23.01391-249.651629z" fill="#2E3138" p-id="1175"></path></svg>